<svg id="ELEKTORNIKA" xmlns="http://www.w3.org/2000/svg" viewBox="0 0 186.86 179.35"><defs><style>.cls-1,.cls-2{fill:#fff;stroke:#fff;stroke-miterlimit:10;}.cls-1{stroke-width:2px;}</style></defs><path class="cls-1" d="M1295,461.34H1167.71V284H1295Zm-119-8.25h110.8V292.23H1176Z" transform="translate(-1166.71 -282.98)"/><path class="cls-2" d="M1277.86,334.74h-92.13V301.37h92.13Zm-87-5.11h81.91V306.47h-81.91Z" transform="translate(-1166.71 -282.98)"/><path class="cls-2" d="M1270.45,364.06a11.49,11.49,0,1,1,11.49-11.48A11.49,11.49,0,0,1,1270.45,364.06Zm0-17.45a6,6,0,1,0,6,6A6,6,0,0,0,1270.45,346.61Z" transform="translate(-1166.71 -282.98)"/><path class="cls-1" d="M1231.8,441a42.63,42.63,0,1,1,42.63-42.63A42.68,42.68,0,0,1,1231.8,441Zm0-79.74a37.11,37.11,0,1,0,37.11,37.11A37.16,37.16,0,0,0,1231.8,361.3Z" transform="translate(-1166.71 -282.98)"/><path class="cls-2" d="M1244,424.33l-36.41-36.41L1219.55,376,1256,412.41Zm-28.62-36.41L1244,416.54l4.13-4.13-28.62-28.62Z" transform="translate(-1166.71 -282.98)"/><path class="cls-2" d="M1337.07,450.27h-46.19v-5.52h43.95a22,22,0,0,0,4.68-19.19l5.4-1.12a27.25,27.25,0,0,1-7.05,25.11Z" transform="translate(-1166.71 -282.98)"/><path class="cls-2" d="M1300.91,450.24l-.85-5.45c.08,0,8.15-1.45,9.4-6.31,1.64-6.38,1.66-22.24,1.66-22.41h5.51c0,.68,0,16.74-1.82,23.78C1312.63,448.3,1301.39,450.16,1300.91,450.24Z" transform="translate(-1166.71 -282.98)"/><path class="cls-2" d="M1315.17,417.19h-2.58a9,9,0,0,1-9-9V334.51a9,9,0,0,1,9-9h2.58a9,9,0,0,1,9,9v73.68A9,9,0,0,1,1315.17,417.19Zm-2.58-86.74a4.06,4.06,0,0,0-4.06,4.06v73.68a4.07,4.07,0,0,0,4.06,4.06h2.58a4.07,4.07,0,0,0,4.06-4.06V334.51a4.06,4.06,0,0,0-4.06-4.06Z" transform="translate(-1166.71 -282.98)"/><path class="cls-2" d="M1344.08,431.31h-2.59a9,9,0,0,1-9-9V348.63a9,9,0,0,1,9-9h2.59a9,9,0,0,1,9,9v73.68A9,9,0,0,1,1344.08,431.31Zm-2.59-86.74a4.06,4.06,0,0,0-4.06,4.06v73.68a4.06,4.06,0,0,0,4.06,4.05h2.59a4.06,4.06,0,0,0,4.05-4.05V348.63a4.06,4.06,0,0,0-4.05-4.06Z" transform="translate(-1166.71 -282.98)"/><rect class="cls-2" x="173.45" y="38.21" width="5.24" height="19.99"/><rect class="cls-2" x="144.55" y="26.37" width="5.24" height="19.99"/></svg>