<svg id="SIVECAMASINA" xmlns="http://www.w3.org/2000/svg" viewBox="0 0 197.11 179.48"><defs><style>.cls-1,.cls-2{fill:#fff;stroke:#fff;stroke-miterlimit:10;}.cls-1{stroke-width:2px;}</style></defs><path class="cls-1" d="M2378.61,1373.12H2183.5v-49.59h195.11Zm-189.29-5.82h183.47v-38H2189.32Z" transform="translate(-2182.5 -1194.64)"/><path class="cls-2" d="M2247.07,1328.26h-59v-16.09h59Zm-53.2-5.82h47.37V1318h-47.37Z" transform="translate(-2182.5 -1194.64)"/><path class="cls-1" d="M2378.58,1329.31h-63v-79.43h63Zm-57.19-5.82h51.36v-67.78h-51.36Z" transform="translate(-2182.5 -1194.64)"/><path class="cls-1" d="M2378.58,1255.71H2194.33V1222.6a16.18,16.18,0,0,1,16.16-16.16h151a17.12,17.12,0,0,1,17.1,17.1Zm-178.42-5.83h172.59v-26.34a11.28,11.28,0,0,0-11.27-11.27h-151a10.34,10.34,0,0,0-10.33,10.33Z" transform="translate(-2182.5 -1194.64)"/><path class="cls-2" d="M2260,1212.27H2215v-17.13H2260Zm-39.24-5.83h33.42V1201h-33.42Z" transform="translate(-2182.5 -1194.64)"/><path class="cls-2" d="M2243.13,1270.84h-49.79v-21h49.79Zm-43.85-5.82h37.91v-9.31h-37.91Z" transform="translate(-2182.5 -1194.64)"/><path class="cls-2" d="M2228.67,1283.09h-22.23v-17.95h22.23Zm-16.41-5.77h10.59v-6.41h-10.59Z" transform="translate(-2182.5 -1194.64)"/><rect class="cls-1" x="33.08" y="86.41" width="4.61" height="27.05"/><rect class="cls-1" x="6.02" y="158.87" width="186.41" height="5.18"/><rect class="cls-1" x="150.64" y="4.67" width="5.06" height="8.67"/><rect class="cls-1" x="156.29" y="99.69" width="24.19" height="5.04"/><rect class="cls-1" x="156.44" y="113.43" width="24.19" height="5.04"/></svg>