<svg id="GRADJVINA" xmlns="http://www.w3.org/2000/svg" viewBox="0 0 185.55 179.04"><defs><style>.cls-1,.cls-2,.cls-3{fill:#fff;stroke:#fff;stroke-miterlimit:10;}.cls-1{stroke-width:0.96px;}.cls-3{stroke-width:0.93px;}</style></defs><polygon class="cls-1" points="138.95 5.16 110.33 5.16 110.64 0.48 138.64 0.48 138.95 5.16"/><rect class="cls-2" x="83.08" y="167.15" width="72.47" height="11.39"/><rect class="cls-2" x="106.11" y="57.15" width="7.51" height="112.07"/><rect class="cls-2" x="136.65" y="57.15" width="7.51" height="112.07"/><rect class="cls-2" x="0.5" y="57.1" width="184.49" height="7.85"/><polygon class="cls-2" points="184.99 31.67 184.99 39.36 12.12 39.36 12.12 37.48 15.57 31.67 184.99 31.67"/><rect class="cls-2" x="177.28" y="31.67" width="7.76" height="33.25"/><polygon class="cls-2" points="24.52 31.67 19.97 39.36 9.45 57.1 4.74 64.95 0.5 64.95 0.5 57.1 12.12 37.48 15.57 31.67 24.52 31.67"/><polygon class="cls-3" points="115.45 1.96 115.15 6.64 113.98 31.23 109.15 30.93 110.33 6.64 110.62 1.96 115.45 1.96"/><polygon class="cls-2" points="140.4 31.98 135.38 32.29 133.96 5.92 133.81 0.89 138.83 0.89 139.14 5.92 140.4 31.98"/><polygon class="cls-2" points="174.39 32.8 172 36.58 140.75 13.57 134.86 9.11 137.61 5.61 143.59 9.97 174.39 32.8"/><polygon class="cls-2" points="64.98 33.05 66.92 37.09 106.16 13.49 113.58 8.91 111.18 5.16 103.69 9.63 64.98 33.05"/><rect class="cls-2" x="34.65" y="63.59" width="4.53" height="42.53"/><rect class="cls-2" x="50.07" y="63.16" width="4.53" height="42.53"/><path class="cls-2" d="M298.34,393.78l11.52,20a5.23,5.23,0,0,0,9.05,0l11.52-20a5.22,5.22,0,0,0-4.52-7.84H302.86A5.22,5.22,0,0,0,298.34,393.78Zm3.17-3.29H327.1l-12.72,22.15Z" transform="translate(-270.39 -283.15)"/><rect class="cls-2" x="41.96" y="132.43" width="4.09" height="11.11"/><path class="cls-2" d="M314.4,451.05a14.58,14.58,0,0,1,0-29.16,15,15,0,0,1,2,.15l-.65,4.67a8.75,8.75,0,0,0-1.37-.1,9.86,9.86,0,1,0,9.86,9.86H329A14.59,14.59,0,0,1,314.4,451.05Z" transform="translate(-270.39 -283.15)"/><rect class="cls-2" x="394.48" y="350.9" width="3.35" height="36.41" transform="translate(247.33 -441.67) rotate(60)"/><rect class="cls-2" x="394.91" y="371.76" width="3.35" height="36.41" transform="translate(265.62 -431.62) rotate(60)"/><rect class="cls-2" x="394.3" y="392.62" width="3.35" height="36.41" transform="translate(283.38 -420.66) rotate(60)"/><rect class="cls-2" x="392.13" y="414.7" width="3.35" height="36.41" transform="translate(301.41 -407.75) rotate(60)"/><rect class="cls-2" x="392.13" y="349.01" width="3.35" height="36.41" transform="translate(638.34 -73.37) rotate(120)"/><rect class="cls-2" x="392.53" y="370.38" width="3.35" height="36.41" transform="translate(657.43 -41.66) rotate(120)"/><rect class="cls-2" x="395.88" y="393.1" width="3.35" height="36.41" transform="translate(682.14 -10.48) rotate(120)"/><rect class="cls-2" x="392.13" y="411.51" width="3.35" height="36.41" transform="matrix(-0.5, 0.87, -0.87, -0.5, 692.46, 20.38)"/></svg>