<svg id="OBRADA" xmlns="http://www.w3.org/2000/svg" viewBox="0 0 36.52 179.24"><defs><style>.cls-1{fill:#fff;stroke:#fff;stroke-miterlimit:10;}</style></defs><path class="cls-1" d="M1246.39,1349.52h-5.89v-18c0-11.07-11.39-28-11.5-28.15l-.52-.74V1181.88a10.61,10.61,0,0,1,10.6-10.6h14.26a10.55,10.55,0,0,1,10.48,10.6v119.81h-5.89V1181.88a4.66,4.66,0,0,0-4.59-4.71h-14.13a4.74,4.74,0,0,0-4.84,4.71V1300.8c2.38,3.65,12,19.14,12,30.69Z" transform="translate(-1227.98 -1170.78)"/><path class="cls-1" d="M1251.93,1349.52H1246v-18c0-11.54,9.54-27,11.89-30.68V1181.88a4.66,4.66,0,0,0-4.59-4.71h-14.13a4.74,4.74,0,0,0-4.84,4.71v119.81h-5.89V1181.88a10.61,10.61,0,0,1,10.6-10.6h14.26a10.55,10.55,0,0,1,10.48,10.6v120.7l-.5.75c-.11.17-11.39,17.07-11.39,28.16Z" transform="translate(-1227.98 -1170.78)"/><rect class="cls-1" x="1245.04" y="1245.12" width="2.23" height="43.4" transform="translate(-1758.77 81.43) rotate(-45)"/><rect class="cls-1" x="1245.37" y="1266.98" width="2.23" height="41.71" transform="translate(-1773.53 87.82) rotate(-45)"/><rect class="cls-1" x="1246.55" y="1226.1" width="2.23" height="43.4" transform="translate(-1744.87 76.93) rotate(-45)"/><rect class="cls-1" x="1243.76" y="1202.68" width="2.23" height="43.4" transform="translate(-1729.13 68.1) rotate(-45)"/><rect class="cls-1" x="1245.47" y="1183.87" width="2.23" height="43.4" transform="translate(-1715.33 63.8) rotate(-45)"/><rect class="cls-1" x="1247.13" y="1167.77" width="2.23" height="37.44" transform="translate(-1701.35 59.38) rotate(-45)"/></svg>