<svg id="Layer_1" data-name="Layer 1" xmlns="http://www.w3.org/2000/svg" viewBox="0 0 1210.645 528.081"><defs><style>.cls-1{fill:#69bc45;}.cls-2{fill:#63b146;}.cls-3{fill:#333;}.cls-4{fill:#fff;}.cls-5{fill:none;}.cls-6{fill:#ec1e24;}</style></defs><path class="cls-1" d="M636.037,742.709h-.02l4.8,6.14.01-.02Z" transform="translate(-144.678 -485.96)"/><path class="cls-2" d="M514.274,661.1c-.552.195-1.108.378-1.66.56-1.241.428-2.469.822-3.722,1.175-.921.282-1.842.535-2.776.78-.639.17-1.278.344-1.929.5-.527.133-1.059.27-1.6.377-.859.208-1.709.395-2.568.577-.9.183-1.793.365-2.7.523h-.012c-2.631.477-5.3.867-7.95,1.162a111.237,111.237,0,0,1-24.868-.038c-2.506-.294-5.037-.672-7.518-1.124-1.423-.257-2.838-.535-4.237-.855-.713-.158-1.415-.315-2.116-.489-.452-.108-.9-.22-1.34-.328-1.166-.3-2.332-.61-3.486-.955-.688-.2-1.39-.415-2.078-.622-.108-.037-.22-.058-.332-.108-.664-.207-1.328-.427-1.988-.647q-1.014-.33-2.029-.7a.567.567,0,0,1-.158-.063v228h75.556v-227.9C514.606,660.991,514.431,661.049,514.274,661.1Z" transform="translate(-144.678 -485.96)"/><polygon class="cls-1" points="496.139 262.889 496.149 262.869 491.359 256.749 491.379 256.749 496.159 262.869 496.139 262.889"/><polygon class="cls-1" points="503.029 368.349 475.979 402.869 475.959 402.869 503.029 368.349"/><polygon class="cls-3" points="1151.979 52.359 1151.979 134.889 1055.309 134.889 1055.309 226.619 950.749 226.619 950.749 134.889 853.229 134.889 853.229 52.359 1151.979 52.359"/><rect class="cls-3" x="950.749" y="311.689" width="104.56" height="91.19"/><polygon points="1151.389 25.109 1151.349 25.229 1151.349 25.109 1151.389 25.109"/><polygon class="cls-4" points="1151.389 25.109 1151.349 25.229 1151.349 25.109 1151.389 25.109"/><path d="M1102.873,608.2Z" transform="translate(-144.678 -485.96)"/><polygon class="cls-1" points="540.899 320.019 513.549 354.919 540.889 319.999 540.899 320.019"/><polygon class="cls-1" points="605.839 402.869 605.819 402.869 573.369 361.439 605.839 402.869"/><path class="cls-2" d="M771.818,801.779l68.22,87.05h-89.52l-32.47-41.43-32.47-41.42-.01-.02-27.34,34.92-1.77,2.26-3.34,4.26-4.64,5.92-.77.99-27.07,34.52h-89.5l68.21-87.05,41.46-52.94.02-.02-4.77-6.11h-.04l-35.81-45.7-46.99-59.97-.4-.51.01-.02-.08-.08c1.02-.96,2.05-1.93,3.04-2.94l.48-.48c.17-.17.33-.32.5-.49,1.33-1.36,2.59-2.73,3.83-4.14a110.679,110.679,0,0,0,14.16-20.17,109.3,109.3,0,0,0,5.66-12.01c0-.01.01-.01.01-.02a110.563,110.563,0,0,0,7.3-29.4l97.85,124.88-13.03,16.66,21.63-27.63,57-72.74h89.5l-13.69,17.49-8.6,10.98.01.01-.07.08-47.39,60.5-35.82,45.7-1.2,1.54-3.59,4.58.01.02Z" transform="translate(-144.678 -485.96)"/><line class="cls-5" x1="695.998" y1="7.729" x2="695.998" y2="7.716"/><polygon class="cls-3" points="814.67 52.361 814.67 463.211 710.1 463.211 710.1 132.951 710.24 132.951 710.24 52.361 814.67 52.361"/><path class="cls-6" d="M476.992,574.149Z" transform="translate(-144.678 -485.96)"/><path class="cls-4" d="M397.9,548.27c-.05.47-.09.94-.13,1.42,0-.06.01-.13.01-.19Q397.825,548.885,397.9,548.27Z" transform="translate(-144.678 -485.96)"/><path class="cls-3" d="M556.72,556.12v.6a1.548,1.548,0,0,0-.01.21v.02c0,.57-.01,1.13-.03,1.69-.02.66-.05,1.31-.08,1.97q-.135,2.34-.39,4.65-.105.945-.24,1.89c-.1.73-.21,1.46-.34,2.18-.07.48-.16.97-.25,1.45-.21,1.12-.45,2.23-.7,3.35-.02.07-.03.14-.05.21a78.86,78.86,0,0,1-17.79,34.53c-.88,1.01-1.79,1.99-2.73,2.96-.13.12-.23.22-.35.34l-.36.36a79.494,79.494,0,0,1-18.51,13.82v12.72h-.03a79.4,79.4,0,0,1-23.17,7.91h-.02c-1.88.32-3.78.6-5.68.81a82.659,82.659,0,0,1-17.79-.02c-1.8-.21-3.6-.47-5.38-.79a80.382,80.382,0,0,1-23.49-8.06V627.91l-.12-.06v-1.57c-.73-.41-1.45-.81-2.18-1.23a80.9,80.9,0,0,1-15.5-11.81,72.979,72.979,0,0,1-5.31-5.71,78.943,78.943,0,0,1-16.76-33.77.573.573,0,0,0-.04-.14c-.25-1.13-.48-2.26-.68-3.4-.1-.58-.2-1.17-.29-1.75-.13-.83-.25-1.66-.35-2.49-.07-.57-.13-1.14-.19-1.72-.06-.56-.11-1.13-.15-1.7-.04-.41-.06-.81-.09-1.21-.03-.5-.06-1-.08-1.51-.03-.56-.05-1.11-.06-1.66a.375.375,0,0,0-.01-.1c-.01-.56-.02-1.12-.02-1.68v-.28c0-.35,0-.69.01-1.03,0-.32.01-.63.01-.95.01-.35.03-.7.04-1.05.02-.57.06-1.13.09-1.7,0-.13.01-.27.02-.4.03-.41.06-.83.09-1.24a.127.127,0,0,1,.01-.06c.04-.48.08-.95.13-1.42.01-.17.02-.33.04-.49.08-.69.16-1.38.25-2.07s.19-1.37.3-2.06.23-1.37.35-2.05a79.656,79.656,0,0,1,40.37-55.51v83.16l37.9,10.93,37.66-10.93V485.96a79.6,79.6,0,0,1,41.8,65.35C556.67,552.9,556.72,554.5,556.72,556.12Z" transform="translate(-144.678 -485.96)"/><path class="cls-2" d="M1248.608,743.571v23.09a15.54,15.54,0,0,1-15.63,15.46H1061.7a15.6,15.6,0,0,1-15.29-12.19h-22.19v244.11H893.908v-64.87h26.31v38.56h77.69V743.621h48.15v-.05a15.548,15.548,0,0,1,15.64-15.46h171.28A15.54,15.54,0,0,1,1248.608,743.571Z" transform="translate(-144.678 -485.96)"/><path class="cls-2" d="M380.768,679.849v68.7H220.808v140.54h-76.04v-.26h-.09V539.289h223.34a110.748,110.748,0,0,0,11.19,68.92h-158.4v71.64Z" transform="translate(-144.678 -485.96)"/><rect class="cls-2" y="402.869" width="0.09" height="0.26"/><path class="cls-2" d="M144.677,889.089Z" transform="translate(-144.678 -485.96)"/><circle class="cls-2" cx="1162.012" cy="354.246" r="48.633"/></svg>
