<svg width="40px" height="40px" viewBox="0 0 53 64" fill="none" xmlns="http://www.w3.org/2000/svg">
<path fill-rule="evenodd" clip-rule="evenodd" d="M44.1667 8.72727H47.1111C50.3635 8.72727 53 11.3322 53 14.5455V58.1818C53 61.3951 50.3635 64 47.1111 64H5.88889C2.63655 64 0 61.3951 0 58.1818V14.5455C0 11.3322 2.63655 8.72727 5.88889 8.72727H8.83333C8.83333 5.51398 11.4699 2.90909 14.7222 2.90909H17.6547C19.8697 1.05593 23.0819 0 26.5 0C29.9181 0 33.1303 1.05593 35.3453 2.90909H38.2778C41.5301 2.90909 44.1667 5.51398 44.1667 8.72727ZM9.62116 14.5455H5.88889V58.1818H47.1111V14.5455H43.3788C42.3606 16.2845 40.4575 17.4545 38.2778 17.4545H14.7222C12.5425 17.4545 10.6394 16.2845 9.62116 14.5455ZM23.5556 39.5223L36.1957 27.0339L40.3598 31.1479L23.5556 47.7504L12.6402 36.9661L16.8043 32.8521L23.5556 39.5223ZM21.0724 7.72473L20.1919 8.72727H18.8484H14.7222V11.6364H38.2778V8.72727H32.8081L31.9276 7.72473C30.9603 6.62324 28.8867 5.81818 26.5 5.81818C24.1133 5.81818 22.0397 6.62324 21.0724 7.72473Z" fill="white"/>
</svg>
