<svg id="CEVI" xmlns="http://www.w3.org/2000/svg" viewBox="0 0 66.78 179.48"><defs><style>.cls-1,.cls-2{fill:#333;stroke:#333;stroke-miterlimit:10;}.cls-2{stroke-width:1.1px;}</style></defs><path class="cls-1" d="M390.4,1330.65H364.24v-75.79H390.4Zm-20-6.13h13.9V1261h-13.9Z" transform="translate(-329.78 -1151.67)"/><path class="cls-1" d="M354.82,1301H336.51v-46.11h18.31Zm-12.26-6h6.21v-34h-6.21Z" transform="translate(-329.78 -1151.67)"/><path class="cls-1" d="M396.05,1260.91H330.28V1220.4h65.77Zm-59.73-6.05H390v-28.41H336.32Z" transform="translate(-329.78 -1151.67)"/><path class="cls-1" d="M382.75,1249.51H342.64v-17.38h40.11Zm-34.68-5.43h29.25v-6.52H348.07Z" transform="translate(-329.78 -1151.67)"/><line class="cls-1" x1="55.15" y1="19.16" x2="55.03" y2="19.16"/><path class="cls-1" d="M361.78,1174.82v12.29h33.51v-16.89h-28.9A4.6,4.6,0,0,0,361.78,1174.82Zm27.46,6.24H367.82v-4.8h21.42Z" transform="translate(-329.78 -1151.67)"/><path class="cls-1" d="M395.29,1213H366.38a4.6,4.6,0,0,1-4.6-4.6v-12.28h33.51Zm-27.46-6h21.42v-4.8H367.83Z" transform="translate(-329.78 -1151.67)"/><rect class="cls-1" x="23.8" y="85.5" width="1.43" height="7.13"/><rect class="cls-1" x="32.68" y="85.87" width="1.43" height="7.13"/><rect class="cls-1" x="41.4" y="85.59" width="1.43" height="7.13"/><path class="cls-1" d="M345.67,1152.67v68.89h-6.05v-64.65a4.24,4.24,0,0,1,4.24-4.24Z" transform="translate(-329.78 -1151.67)"/><path class="cls-2" d="M394.79,1157.8h0a1,1,0,0,1-1.1.91H340.81a1,1,0,0,1-1.1-.91h0c0-2.84,2.8-5.14,6.26-5.14h42.58C392,1152.67,394.79,1155,394.79,1157.8Z" transform="translate(-329.78 -1151.67)"/><path class="cls-1" d="M394.94,1156.91v16h-5.23v-20.27h1.57A4,4,0,0,1,394.94,1156.91Z" transform="translate(-329.78 -1151.67)"/><path class="cls-1" d="M395.29,1173.44h-5.93v-21.27h1.92c2.21,0,4,2.12,4,4.74Zm-5.22-1h4.51v-15.53a3.54,3.54,0,0,0-3.3-3.74h-1.21Z" transform="translate(-329.78 -1151.67)"/><path class="cls-1" d="M384.93,1207.55v17h-6.05v-16c0-.58,1.9-1,4.24-1Z" transform="translate(-329.78 -1151.67)"/><rect class="cls-1" x="32.01" y="29.39" width="6.04" height="21.07"/></svg>