<svg width="40px" height="40px" viewBox="0 0 54 64" fill="none" xmlns="http://www.w3.org/2000/svg">
<path d="M21.5 56C22.8807 56 24 54.8807 24 53.5C24 52.1193 22.8807 51 21.5 51C20.1193 51 19 52.1193 19 53.5C19 54.8807 20.1193 56 21.5 56Z" fill="white"/>
<path d="M8.76376 64H33.7684C38.6009 64 42.5321 60.0823 42.5321 55.2663V37.7143H51.7064C52.9748 37.7143 54 36.6903 54 35.4286V18.2857C54 17.024 52.9748 16 51.7064 16H42.5321V8.73371C42.5321 3.91771 38.6032 0 33.7684 0H25.8532H16.6789H8.76376C3.9289 0 0 3.91771 0 8.73371V55.264C0 60.0823 3.9289 64 8.76376 64ZM49.4128 33.1429H41.3853C40.7752 33.1429 40.1927 33.3829 39.7638 33.8126L38.6193 34.9531C38.617 34.9554 38.617 34.9554 38.6147 34.9577L35.6514 37.9109V35.4286C35.6514 34.1669 34.6261 33.1429 33.3578 33.1429H21.8899V20.5714H49.4128V33.1429ZM23.5596 4.57143C23.5596 5.83086 22.5321 6.85714 21.2661 6.85714C20 6.85714 18.9725 5.83086 18.9725 4.57143H23.5596ZM4.58716 8.73371C4.58716 6.43886 6.46101 4.57143 8.76376 4.57143H14.3853C14.3853 8.352 17.4725 11.4286 21.2661 11.4286C25.0596 11.4286 28.1468 8.352 28.1468 4.57143H33.7684C36.0711 4.57143 37.945 6.43886 37.945 8.73371V16H19.5963C18.328 16 17.3028 17.024 17.3028 18.2857V35.4286C17.3028 36.6903 18.328 37.7143 19.5963 37.7143H31.0642V43.4286C31.0642 44.352 31.6216 45.1863 32.4794 45.5406C32.7661 45.6571 33.0642 45.7143 33.3578 45.7143C33.9541 45.7143 34.5413 45.4811 34.9794 45.0446L37.945 42.0891V55.2663C37.945 57.5611 36.0711 59.4286 33.7684 59.4286H8.76376C6.46101 59.4286 4.58716 57.5611 4.58716 55.2663V8.73371Z" fill="white"/>
</svg>
