<svg xmlns="http://www.w3.org/2000/svg" xmlns:xlink="http://www.w3.org/1999/xlink" version="1.1" width="1080" height="1080" xml:space="preserve" style=""><rect id="backgroundrect" width="100%" height="100%" x="0" y="0" fill="none" stroke="none"/>
<desc>Created with Fabric.js 5.2.4</desc>
<defs>
</defs>






<g class="currentLayer" style=""><title>Layer 1</title><rect x="0" y="0" width="100%" height="100%" fill="transparent" id="svg_1"/><g id="a4615d8e-646a-4309-9437-3b84caa9e287">
<rect style="stroke: none; stroke-width: 1; stroke-dasharray: none; stroke-linecap: butt; stroke-dashoffset: 0; stroke-linejoin: miter; stroke-miterlimit: 4; fill: rgb(255,255,255); fill-rule: nonzero; opacity: 1; visibility: hidden;" vector-effect="non-scaling-stroke" x="-540" y="-540" rx="0" ry="0" width="1080" height="1080" transform="matrix(1,0,0,1,540,540) " stroke-width="0" id="svg_2"/>
</g><g id="b35e1d60-4847-43f0-a772-58e5e7f246fe">
</g><g id="svg_3" class="selected" fill-opacity="1" fill="#f4efd4">
<g style="" vector-effect="non-scaling-stroke" stroke-width="0" id="svg_4" fill="#f4efd4">
		<g stroke-width="0" id="svg_5" fill="#f4efd4">
<rect style="stroke: none; stroke-width: 1; stroke-dasharray: none; stroke-linecap: butt; stroke-dashoffset: 0; stroke-linejoin: miter; stroke-miterlimit: 4; fill-rule: nonzero; opacity: 1;" vector-effect="non-scaling-stroke" x="-50" y="-50" rx="0" ry="0" width="100" height="100" transform="matrix(1,0,0,1,50,50) " stroke-width="0" id="svg_6" fill="#f4efd4"/>
</g>
		<g stroke-width="0" id="svg_7" fill="#f4efd4">
<rect style="stroke: none; stroke-width: 1; stroke-dasharray: none; stroke-linecap: butt; stroke-dashoffset: 0; stroke-linejoin: miter; stroke-miterlimit: 4; fill-rule: nonzero; opacity: 1; visibility: hidden;" vector-effect="non-scaling-stroke" x="-540" y="-540" rx="0" ry="0" width="1080" height="1080" transform="matrix(1,0,0,1,540,540) " stroke-width="0" id="svg_8" fill="#f4efd4"/>
</g>
		<g stroke-width="0" id="svg_9" fill="#f4efd4">
<path style="stroke: rgb(209, 148, 195); stroke-width: 0; stroke-dasharray: none; stroke-linecap: butt; stroke-dashoffset: 0; stroke-linejoin: miter; stroke-miterlimit: 4; fill-rule: nonzero; opacity: 1;" vector-effect="non-scaling-stroke" d="M540,796 C681.4,796 796,681.4 796,540 C796,398.6 681.4,284 540,284 C398.6,284 284,398.6 284,540 C284,681.4 398.6,796 540,796 z" stroke-linecap="round" stroke-width="0" id="svg_10" fill="#f4efd4"/>
</g>
</g>
</g><g id="svg_11">
<g style="" stroke-width="NaN" id="svg_12">
</g>
</g><g id="svg_13">
<g style="" stroke-width="NaN" id="svg_14">
</g>
</g></g></svg>