<svg viewBox="0 0 27 28" fill="none" xmlns="http://www.w3.org/2000/svg">
<path d="M24.0533 14.84C24.24 14.84 24.4133 14.92 24.56 15.0667L26.2667 16.7733C26.56 17.0533 26.56 17.52 26.2667 17.8L24.9333 19.1333L22.2 16.4L23.5333 15.0667C23.68 14.92 23.8667 14.84 24.0533 14.84ZM21.4267 17.1733L24.16 19.9067L16.08 28H13.3333V25.2533L21.4267 17.1733M21.3333 2.66667C22.8 2.66667 24 3.86667 24 5.33333V10.6667L10.6667 24V26.6667H2.66667C1.2 26.6667 0 25.4667 0 24V5.33333C0 3.86667 1.2 2.66667 2.66667 2.66667H8.24C8.8 1.12 10.2667 0 12 0C13.7333 0 15.2 1.12 15.76 2.66667H21.3333ZM12 2.66667C11.2667 2.66667 10.6667 3.26667 10.6667 4C10.6667 4.73333 11.2667 5.33333 12 5.33333C12.7333 5.33333 13.3333 4.73333 13.3333 4C13.3333 3.26667 12.7333 2.66667 12 2.66667Z" fill="#212529"/>
</svg>
