<svg viewBox="0 0 22 27" fill="none" xmlns="http://www.w3.org/2000/svg">
<path d="M10.6667 13.3333C11.4 13.3333 12.028 13.072 12.5507 12.5493C13.0724 12.0276 13.3333 11.4 13.3333 10.6667C13.3333 9.93333 13.0724 9.30533 12.5507 8.78267C12.028 8.26089 11.4 8 10.6667 8C9.93333 8 9.30578 8.26089 8.784 8.78267C8.26133 9.30533 8 9.93333 8 10.6667C8 11.4 8.26133 12.0276 8.784 12.5493C9.30578 13.072 9.93333 13.3333 10.6667 13.3333ZM10.6667 26.6667C7.08889 23.6222 4.41689 20.7942 2.65067 18.1827C0.883555 15.572 0 13.1556 0 10.9333C0 7.6 1.07244 4.94444 3.21733 2.96667C5.36133 0.988889 7.84444 0 10.6667 0C13.4889 0 15.972 0.988889 18.116 2.96667C20.2609 4.94444 21.3333 7.6 21.3333 10.9333C21.3333 13.1556 20.4502 15.572 18.684 18.1827C16.9169 20.7942 14.2444 23.6222 10.6667 26.6667Z" fill="#212529"/>
</svg>
