<svg id="NEKATEGORIZOVANO" xmlns="http://www.w3.org/2000/svg" viewBox="0 0 161.66 179.56"><defs><style>.cls-1{fill:#333;stroke:#333;stroke-miterlimit:10;stroke-width:2px;}</style></defs><path class="cls-1" d="M443,2222.67H283.34v-23.76a55.28,55.28,0,0,1,55.22-55.23h49.21A55.28,55.28,0,0,1,443,2198.91Zm-153.64-6H437v-17.74a49.27,49.27,0,0,0-49.21-49.21H338.56a49.27,49.27,0,0,0-49.21,49.21Z" transform="translate(-282.34 -2044.11)"/><path class="cls-1" d="M365.17,2134.64a31.86,31.86,0,0,1-31.83-31.82v-18.44H397v18.44A31.86,31.86,0,0,1,365.17,2134.64Zm-26.75-45.19v13.37a26.75,26.75,0,0,0,53.5,0v-13.37Z" transform="translate(-282.34 -2044.11)"/><path class="cls-1" d="M400.35,2089.44H330v-7.86a35.18,35.18,0,0,1,70.35,0ZM334.41,2085h61.53v-3.45a30.77,30.77,0,0,0-61.53,0Z" transform="translate(-282.34 -2044.11)"/><rect class="cls-1" x="42.67" y="40.31" width="80.33" height="5.42"/><rect class="cls-1" x="312.64" y="2160.86" width="32.76" height="5.42" transform="translate(-2116.88 448.48) rotate(-90)"/><rect class="cls-1" x="386.45" y="2160.86" width="32.76" height="5.42" transform="translate(-2043.07 522.29) rotate(-90)"/><rect class="cls-1" x="38.32" y="135.84" width="90.54" height="4.81"/><rect class="cls-1" x="304.76" y="2197.33" width="37.22" height="5.42" transform="translate(-2159.01 479.3) rotate(-90)"/><rect class="cls-1" x="389.88" y="2195.85" width="37.22" height="5.42" transform="translate(-2072.41 562.93) rotate(-90)"/><path class="cls-1" d="M373.78,2070.75H356.57v-25.64h17.21Zm-12.89-4.32h8.57v-17h-8.57Z" transform="translate(-282.34 -2044.11)"/></svg>