<svg id="METLA" xmlns="http://www.w3.org/2000/svg" viewBox="0 0 117.81 178.01"><defs><style>.cls-1{fill:#333;stroke:#333;stroke-miterlimit:10;}</style></defs><path class="cls-1" d="M2293.81,402.07h-25.52V285a10.37,10.37,0,0,1,10.35-10.35h4.82A10.36,10.36,0,0,1,2293.81,285Zm-17.33-8.18h9.15V285a2.17,2.17,0,0,0-2.17-2.17h-4.82a2.17,2.17,0,0,0-2.16,2.17Z" transform="translate(-2222.15 -274.16)"/><path class="cls-1" d="M2339.46,419.12H2222.65V393.89h116.81Zm-108.63-8.18h100.45v-8.87H2230.83Z" transform="translate(-2222.15 -274.16)"/><path class="cls-1" d="M2321.51,451.67H2240.6a11.52,11.52,0,0,1-11.5-11.51V411.42H2333v28.74A11.52,11.52,0,0,1,2321.51,451.67Zm-84.23-32.07v20.56a3.33,3.33,0,0,0,3.32,3.33h80.91a3.33,3.33,0,0,0,3.32-3.33V419.6Z" transform="translate(-2222.15 -274.16)"/><rect class="cls-1" x="32.52" y="159.45" width="4.82" height="13.29"/><rect class="cls-1" x="48.41" y="156.37" width="4.82" height="14.3"/><rect class="cls-1" x="62.76" y="157.38" width="4.82" height="13.29"/><rect class="cls-1" x="77.3" y="159.45" width="4.82" height="12.52"/></svg>