<svg viewBox="0 0 24 25" fill="none" xmlns="http://www.w3.org/2000/svg">
<path d="M21.3333 12C21.3333 9.4 20.4276 7.19422 18.616 5.38267C16.8053 3.572 14.6 2.66667 12 2.66667V0C13.6667 0 15.228 0.316444 16.684 0.949333C18.1391 1.58311 19.4058 2.43911 20.484 3.51733C21.5613 4.59467 22.4169 5.86133 23.0507 7.31733C23.6836 8.77244 24 10.3333 24 12H21.3333ZM16 12C16 10.8889 15.6111 9.94444 14.8333 9.16667C14.0556 8.38889 13.1111 8 12 8V5.33333C13.8444 5.33333 15.4169 5.98311 16.7173 7.28267C18.0169 8.58311 18.6667 10.1556 18.6667 12H16ZM22.6 24.0667C19.7333 24.0667 16.9391 23.4333 14.2173 22.1667C11.4947 20.9 9.08356 19.2111 6.984 17.1C4.88356 14.9889 3.19467 12.572 1.91733 9.84933C0.639111 7.12756 0 4.33333 0 1.46667V0.766667C0 0.522222 0.0222222 0.288889 0.0666666 0.0666666H7.86667L9.1 6.76667L5.3 10.6C6.23333 12.2 7.40578 13.7 8.81733 15.1C10.228 16.5 11.7778 17.7111 13.4667 18.7333L17.3333 14.8667L24 16.2V24C23.7778 24.0222 23.5444 24.0391 23.3 24.0507C23.0556 24.0613 22.8222 24.0667 22.6 24.0667Z" fill="#212529"/>
</svg>
