<svg width="40px" height="40px" viewBox="0 0 53 64" fill="none" xmlns="http://www.w3.org/2000/svg">
<path fill-rule="evenodd" clip-rule="evenodd" d="M47.1111 8.72727H44.1667C44.1667 5.51398 41.5301 2.90909 38.2778 2.90909H35.3453C33.1303 1.05593 29.9181 0 26.5 0C23.0819 0 19.8697 1.05593 17.6547 2.90909H14.7222C11.4699 2.90909 8.83333 5.51398 8.83333 8.72727H5.88889C2.63655 8.72727 0 11.3322 0 14.5455V58.1818C0 61.3951 2.63655 64 5.88889 64H47.1111C50.3635 64 53 61.3951 53 58.1818V14.5455C53 11.3322 50.3635 8.72727 47.1111 8.72727ZM5.88889 14.5455H9.62116C10.6394 16.2845 12.5425 17.4545 14.7222 17.4545H38.2778C40.4575 17.4545 42.3606 16.2845 43.3788 14.5455H47.1111V58.1818H5.88889V14.5455ZM20.1919 8.72727L21.0724 7.72473C22.0397 6.62324 24.1133 5.81818 26.5 5.81818C28.8867 5.81818 30.9603 6.62324 31.9276 7.72473L32.8081 8.72727H38.2778V11.6364H14.7222V8.72727H18.8484H20.1919ZM31.0909 29H12.9091C12.668 29 12.4368 28.7893 12.2663 28.4142C12.0958 28.0391 12 27.5304 12 27C12 26.4696 12.0958 25.9609 12.2663 25.5858C12.4368 25.2107 12.668 25 12.9091 25H31.0909C31.332 25 31.5632 25.2107 31.7337 25.5858C31.9042 25.9609 32 26.4696 32 27C32 27.5304 31.9042 28.0391 31.7337 28.4142C31.5632 28.7893 31.332 29 31.0909 29ZM13.3636 39H40.6364C40.998 39 41.3449 38.7893 41.6006 38.4142C41.8563 38.0391 42 37.5304 42 37C42 36.4696 41.8563 35.9609 41.6006 35.5858C41.3449 35.2107 40.998 35 40.6364 35H13.3636C13.002 35 12.6551 35.2107 12.3994 35.5858C12.1437 35.9609 12 36.4696 12 37C12 37.5304 12.1437 38.0391 12.3994 38.4142C12.6551 38.7893 13.002 39 13.3636 39ZM36.8182 49H13.1818C12.8684 49 12.5678 48.7893 12.3461 48.4142C12.1245 48.0391 12 47.5304 12 47C12 46.4696 12.1245 45.9609 12.3461 45.5858C12.5678 45.2107 12.8684 45 13.1818 45H36.8182C37.1316 45 37.4322 45.2107 37.6539 45.5858C37.8755 45.9609 38 46.4696 38 47C38 47.5304 37.8755 48.0391 37.6539 48.4142C37.4322 48.7893 37.1316 49 36.8182 49Z" fill="#FFFFFF"/>
</svg>
