<svg id="VOZILA" xmlns="http://www.w3.org/2000/svg" viewBox="0 0 177.42 182.46"><defs><style>.cls-1,.cls-3{fill:none;}.cls-1,.cls-2,.cls-3{stroke:#333;stroke-miterlimit:10;}.cls-1{stroke-width:6px;}.cls-2{fill:#333;}</style></defs><polygon class="cls-1" points="174.42 112.86 174.42 160.72 3 160.72 3 112.86 18.14 95.02 156.84 95.02 174.42 112.86"/><path class="cls-1" d="M1339.43,2136.66H1204.35l11.1-33.43h43.79V2115h27.92v-11.77l0,0h41Z" transform="translate(-1185.93 -2041.65)"/><path class="cls-1" d="M1342.44,2136.66h-136.6l11.22-33.43h42.18V2115h27.92v-11.77l0,0H1331Z" transform="translate(-1185.93 -2041.65)"/><path class="cls-1" d="M8.25,160.72H42.79a0,0,0,0,1,0,0v18.14a.61.61,0,0,1-.61.61H8.86a.61.61,0,0,1-.61-.61V160.72A0,0,0,0,1,8.25,160.72Z"/><path class="cls-1" d="M135.6,160.72h34.54a0,0,0,0,1,0,0v18.14a.61.61,0,0,1-.61.61H136.21a.61.61,0,0,1-.61-.61V160.72A0,0,0,0,1,135.6,160.72Z"/><path class="cls-1" d="M1307.51,2163l-9.44,14.2h-47.23l-10.12-14.11a3,3,0,0,1,2.42-4.73H1305A3,3,0,0,1,1307.51,2163Z" transform="translate(-1185.93 -2041.65)"/><rect class="cls-2" x="15.31" y="146.86" width="24.96" height="4.31" rx="0.15"/><line class="cls-3" x1="59.43" y1="146.97" x2="59.43" y2="146.86"/><rect class="cls-2" x="137.28" y="146.86" width="24.96" height="4.31" rx="0.15"/><path class="cls-2" d="M1299.21,2192.81h-49.47c-1.6,0-2.89-.59-2.89-1.31v-1.69c0-.72,1.29-1.31,2.89-1.31h49.47c1.6,0,2.9.59,2.9,1.31v1.69C1302.11,2192.22,1300.81,2192.81,1299.21,2192.81Z" transform="translate(-1185.93 -2041.65)"/><rect class="cls-1" x="13.38" y="117.29" width="31.75" height="17.94" rx="0.62"/><rect class="cls-1" x="133.28" y="117.29" width="31.75" height="17.94" rx="0.62"/><path class="cls-1" d="M152.73,83.87H165.2a.89.89,0,0,1,.89.89V95a0,0,0,0,1,0,0H152.73a0,0,0,0,1,0,0V83.87A0,0,0,0,1,152.73,83.87Z"/><path class="cls-1" d="M1193.14,2125.18h13.37a0,0,0,0,1,0,0v10.25a.89.89,0,0,1-.89.89h-12.48a0,0,0,0,1,0,0v-11.15A0,0,0,0,1,1193.14,2125.18Z" transform="translate(1213.72 2219.86) rotate(-180)"/><path class="cls-1" d="M1302.66,2072.59v.3h0c0,.21,0,.42,0,.62l0,.73c0,.58-.09,1.15-.15,1.72,0,.23,0,.46-.09.7s-.07.54-.12.8-.06.36-.1.54c-.07.41-.16.82-.25,1.24a.19.19,0,0,0,0,.07,29,29,0,0,1-6.58,12.76c-.32.38-.66.74-1,1.1l-.13.12-.14.13a29.21,29.21,0,0,1-6.84,5.11v4.7h0l0,0V2115h-27.92v-16.52l-.8-.45a27.76,27.76,0,0,1-2.54-1.67,28.93,28.93,0,0,1-3.19-2.69c-.69-.68-1.35-1.38-2-2.11a29.11,29.11,0,0,1-6.19-12.48s0,0,0-.05c-.09-.42-.18-.84-.25-1.26,0-.21-.07-.43-.11-.64s-.09-.62-.13-.93,0-.42-.07-.63,0-.42,0-.63,0-.3,0-.45a5.07,5.07,0,0,1,0-.55c0-.21,0-.41,0-.62v0c0-.21,0-.42,0-.62v-.11c0-.13,0-.25,0-.38v-.35c0-.13,0-.26,0-.39s0-.41,0-.63a.66.66,0,0,1,0-.14l0-.46v0c0-.18,0-.35,0-.53s0-.12,0-.18c0-.25.06-.51.1-.76s.07-.51.11-.77.08-.5.13-.75a29.43,29.43,0,0,1,14.91-20.51v30.72l14,4,13.91-4v-30.77a29.42,29.42,0,0,1,15.44,24.14C1302.64,2071.4,1302.66,2072,1302.66,2072.59Z" transform="translate(-1185.93 -2041.65)"/></svg>